<?xml version="1.0" encoding="utf-8" standalone="no"?>
<!DOCTYPE svg PUBLIC "-//W3C//DTD SVG 1.1//EN"
  "http://www.w3.org/Graphics/SVG/1.1/DTD/svg11.dtd">
<svg xmlns:xlink="http://www.w3.org/1999/xlink" width="278.628pt" height="348.644179pt" viewBox="0 0 278.628 348.644179" xmlns="http://www.w3.org/2000/svg" version="1.1">
 <metadata>
  <rdf:RDF xmlns:dc="http://purl.org/dc/elements/1.1/" xmlns:cc="http://creativecommons.org/ns#" xmlns:rdf="http://www.w3.org/1999/02/22-rdf-syntax-ns#">
   <cc:Work>
    <dc:type rdf:resource="http://purl.org/dc/dcmitype/StillImage"/>
    <dc:date>2026-03-31T13:17:21.502572</dc:date>
    <dc:format>image/svg+xml</dc:format>
    <dc:creator>
     <cc:Agent>
      <dc:title>Matplotlib v3.10.8, https://matplotlib.org/</dc:title>
     </cc:Agent>
    </dc:creator>
   </cc:Work>
  </rdf:RDF>
 </metadata>
 <defs>
  <style type="text/css">*{stroke-linejoin: round; stroke-linecap: butt}</style>
 </defs>
 <g id="figure_1">
  <g id="patch_1">
   <path d="M 0 348.644179 
L 278.628 348.644179 
L 278.628 0 
L 0 0 
z
" style="fill: #f5f5f0"/>
  </g>
  <g id="axes_1">
   <g id="patch_2">
    <path d="M 35.494878 158.504132 
C 33.468861 169.124923 33.084555 179.993985 34.355403 190.731346 
C 35.626258 201.468707 38.537286 211.947763 42.986711 221.802132 
C 47.436135 231.656505 53.371485 240.769997 60.585269 248.82402 
C 67.799052 256.878043 76.206198 263.777611 85.512807 269.281521 
C 94.819416 274.785431 104.915753 278.828784 115.448816 281.270215 
C 125.981878 283.711646 136.827472 284.522365 147.606447 283.674043 
C 158.385422 282.825721 168.97069 280.328342 178.992147 276.269234 
C 189.013603 272.210125 198.353086 266.637139 206.684113 259.745119 
C 215.01514 252.853098 222.23945 244.723302 228.104496 235.639954 
C 233.969542 226.556606 238.406159 216.626792 241.259236 206.197702 
C 244.112314 195.768612 245.348205 184.963207 244.923714 174.159237 
C 244.499222 163.355267 242.419355 152.680141 238.756818 142.50705 
C 235.094281 132.33396 229.892259 122.782855 223.332622 114.18767 
C 216.772985 105.592485 208.933069 98.054551 200.086981 91.837422 
C 191.240895 85.620293 181.492971 80.797265 171.183931 77.536944 
C 160.874893 74.276624 150.126301 72.617456 139.313995 72.617456 
L 139.314 178.308656 
z
" style="fill: #c0392b"/>
   </g>
   <g id="patch_3">
    <path d="M 139.314001 72.617456 
C 114.724856 72.617456 90.890125 81.198486 71.943868 96.872207 
C 52.997612 112.545927 40.102418 134.350528 35.494878 158.504132 
L 139.314 178.308656 
z
" style="fill: #2c3e50"/>
   </g>
   <g id="matplotlib.axis_1"/>
   <g id="matplotlib.axis_2"/>
   <g id="text_1">
    <text style="font-weight: 700; font-size: 28px; font-family: 'DejaVu Sans', 'Bitstream Vera Sans', 'Computer Modern Sans Serif', 'Lucida Grande', 'Verdana', 'Geneva', 'Lucid', 'Arial', 'Helvetica', 'Avant Garde', sans-serif; text-anchor: middle; fill: #ffffff" x="139.314" y="212.457706" transform="rotate(-0 139.314 212.457706)">78%</text>
   </g>
   <g id="text_2">
    <text style="font-weight: 700; font-size: 18px; font-family: 'DejaVu Sans', 'Bitstream Vera Sans', 'Computer Modern Sans Serif', 'Lucida Grande', 'Verdana', 'Geneva', 'Lucid', 'Arial', 'Helvetica', 'Avant Garde', sans-serif; text-anchor: middle; fill: #ffffff" x="197.44416" y="114.576251" transform="rotate(-0 197.44416 114.576251)">22%</text>
   </g>
   <g id="text_3">
    <text style="font-size: 6px; font-family: 'DejaVu Sans', 'Bitstream Vera Sans', 'Computer Modern Sans Serif', 'Lucida Grande', 'Verdana', 'Geneva', 'Lucid', 'Arial', 'Helvetica', 'Avant Garde', sans-serif; fill: #666666" transform="translate(58.995563 333.477679)">Fuente: IFT con datos de la ENDUTIH 2023, del INEGI.</text>
    <text style="font-size: 6px; font-family: 'DejaVu Sans', 'Bitstream Vera Sans', 'Computer Modern Sans Serif', 'Lucida Grande', 'Verdana', 'Geneva', 'Lucid', 'Arial', 'Helvetica', 'Avant Garde', sans-serif; fill: #666666" transform="translate(11.814938 340.196366)">Datos disponibles en https://www.inegi.org.mx/programas/endutih/2023/#tabulados.</text>
   </g>
   <g id="text_4">
    <text style="font-size: 9px; font-family: 'DejaVu Sans', 'Bitstream Vera Sans', 'Computer Modern Sans Serif', 'Lucida Grande', 'Verdana', 'Geneva', 'Lucid', 'Arial', 'Helvetica', 'Avant Garde', sans-serif; fill: #333333" transform="translate(36.422906 14.038594)">Figura C.3. Porcentaje del uso de los servicios</text>
    <text style="font-size: 9px; font-family: 'DejaVu Sans', 'Bitstream Vera Sans', 'Computer Modern Sans Serif', 'Lucida Grande', 'Verdana', 'Geneva', 'Lucid', 'Arial', 'Helvetica', 'Avant Garde', sans-serif; fill: #333333" transform="translate(68.622516 24.116625)">móviles de telecomunicaciones</text>
    <text style="font-size: 9px; font-family: 'DejaVu Sans', 'Bitstream Vera Sans', 'Computer Modern Sans Serif', 'Lucida Grande', 'Verdana', 'Geneva', 'Lucid', 'Arial', 'Helvetica', 'Avant Garde', sans-serif; fill: #333333" transform="translate(79.230563 34.194656)">Población de 6 años o más</text>
   </g>
   <g id="legend_1">
    <g id="patch_4">
     <path d="M 51.64193 322.811657 
L 66.64193 322.811657 
L 66.64193 317.561657 
L 51.64193 317.561657 
z
" style="fill: #c0392b; stroke: #c0392b; stroke-linejoin: miter"/>
    </g>
    <g id="text_5">
     <text style="font-size: 7.5px; font-family: 'DejaVu Sans', 'Bitstream Vera Sans', 'Computer Modern Sans Serif', 'Lucida Grande', 'Verdana', 'Geneva', 'Lucid', 'Arial', 'Helvetica', 'Avant Garde', sans-serif; text-anchor: start" x="72.64193" y="322.811657" transform="rotate(-0 72.64193 322.811657)">Hacen uso de servicios móviles (78%)</text>
    </g>
    <g id="patch_5">
     <path d="M 51.64193 333.820251 
L 66.64193 333.820251 
L 66.64193 328.570251 
L 51.64193 328.570251 
z
" style="fill: #2c3e50; stroke: #2c3e50; stroke-linejoin: miter"/>
    </g>
    <g id="text_6">
     <text style="font-size: 7.5px; font-family: 'DejaVu Sans', 'Bitstream Vera Sans', 'Computer Modern Sans Serif', 'Lucida Grande', 'Verdana', 'Geneva', 'Lucid', 'Arial', 'Helvetica', 'Avant Garde', sans-serif; text-anchor: start" x="72.64193" y="333.820251" transform="rotate(-0 72.64193 333.820251)">No hacen uso de servicios móviles (22%)</text>
    </g>
   </g>
  </g>
 </g>
</svg>
